<mxfile host="Electron" modified="2024-01-15T16:05:41.572Z" agent="Mozilla/5.0 (Macintosh; Intel Mac OS X 10_15_7) AppleWebKit/537.36 (KHTML, like Gecko) draw.io/22.0.2 Chrome/114.0.5735.289 Electron/25.8.4 Safari/537.36" etag="ZwKZ5IP1HJc-cO-SPPF0" version="22.0.2" type="device">
  <diagram name="Page-1" id="IMjCWrvAuqWz7FHaYjWo">
    <mxGraphModel dx="4247" dy="1351" grid="0" gridSize="10" guides="1" tooltips="1" connect="1" arrows="1" fold="1" page="1" pageScale="1" pageWidth="2336" pageHeight="1654" math="0" shadow="0">
      <root>
        <mxCell id="0" />
        <mxCell id="1" parent="0" />
        <mxCell id="PLGpDg-OFUtUU8TYexSK-134" value="" style="rounded=1;whiteSpace=wrap;html=1;fillColor=#fff2cc;strokeColor=#d6b656;opacity=70;" parent="1" vertex="1">
          <mxGeometry x="-1898" y="251" width="1120" height="286" as="geometry" />
        </mxCell>
        <mxCell id="PLGpDg-OFUtUU8TYexSK-170" value="" style="endArrow=classic;html=1;rounded=0;exitX=0.5;exitY=0;exitDx=0;exitDy=0;entryX=0.5;entryY=1;entryDx=0;entryDy=0;startArrow=classic;startFill=1;" parent="1" source="PLGpDg-OFUtUU8TYexSK-44" target="PLGpDg-OFUtUU8TYexSK-141" edge="1">
          <mxGeometry width="50" height="50" relative="1" as="geometry">
            <mxPoint x="-1960" y="870" as="sourcePoint" />
            <mxPoint x="-1910" y="820" as="targetPoint" />
          </mxGeometry>
        </mxCell>
        <mxCell id="PLGpDg-OFUtUU8TYexSK-171" value="" style="endArrow=classic;html=1;rounded=0;exitX=0.5;exitY=0;exitDx=0;exitDy=0;entryX=0.5;entryY=1;entryDx=0;entryDy=0;startArrow=classic;startFill=1;" parent="1" source="PLGpDg-OFUtUU8TYexSK-40" target="PLGpDg-OFUtUU8TYexSK-137" edge="1">
          <mxGeometry width="50" height="50" relative="1" as="geometry">
            <mxPoint x="-1798" y="858" as="sourcePoint" />
            <mxPoint x="-1658" y="228" as="targetPoint" />
          </mxGeometry>
        </mxCell>
        <mxCell id="PLGpDg-OFUtUU8TYexSK-172" value="" style="endArrow=classic;html=1;rounded=0;exitX=0.5;exitY=0;exitDx=0;exitDy=0;entryX=0.5;entryY=1;entryDx=0;entryDy=0;startArrow=classic;startFill=1;" parent="1" source="PLGpDg-OFUtUU8TYexSK-81" target="PLGpDg-OFUtUU8TYexSK-145" edge="1">
          <mxGeometry width="50" height="50" relative="1" as="geometry">
            <mxPoint x="-1648" y="858" as="sourcePoint" />
            <mxPoint x="-1508" y="198" as="targetPoint" />
          </mxGeometry>
        </mxCell>
        <mxCell id="PLGpDg-OFUtUU8TYexSK-79" value="" style="endArrow=classic;html=1;rounded=0;exitX=0.5;exitY=0;exitDx=0;exitDy=0;entryX=0.5;entryY=1;entryDx=0;entryDy=0;" parent="1" source="PLGpDg-OFUtUU8TYexSK-18" target="PLGpDg-OFUtUU8TYexSK-44" edge="1">
          <mxGeometry width="50" height="50" relative="1" as="geometry">
            <mxPoint x="-1230" y="863" as="sourcePoint" />
            <mxPoint x="-1808" y="891" as="targetPoint" />
          </mxGeometry>
        </mxCell>
        <mxCell id="PLGpDg-OFUtUU8TYexSK-48" value="" style="endArrow=classic;html=1;rounded=0;entryX=0.5;entryY=1;entryDx=0;entryDy=0;exitX=0.5;exitY=0;exitDx=0;exitDy=0;" parent="1" source="PLGpDg-OFUtUU8TYexSK-18" target="PLGpDg-OFUtUU8TYexSK-36" edge="1">
          <mxGeometry width="50" height="50" relative="1" as="geometry">
            <mxPoint x="-1230" y="863" as="sourcePoint" />
            <mxPoint x="-1338.2800000000002" y="890.94" as="targetPoint" />
          </mxGeometry>
        </mxCell>
        <mxCell id="PLGpDg-OFUtUU8TYexSK-80" value="" style="endArrow=classic;html=1;rounded=0;exitX=0.5;exitY=0;exitDx=0;exitDy=0;entryX=0.5;entryY=1;entryDx=0;entryDy=0;" parent="1" source="PLGpDg-OFUtUU8TYexSK-23" target="PLGpDg-OFUtUU8TYexSK-40" edge="1">
          <mxGeometry width="50" height="50" relative="1" as="geometry">
            <mxPoint x="-1558" y="1033" as="sourcePoint" />
            <mxPoint x="-1658.0955414012737" y="891" as="targetPoint" />
          </mxGeometry>
        </mxCell>
        <mxCell id="PLGpDg-OFUtUU8TYexSK-86" value="" style="endArrow=classic;html=1;rounded=0;exitX=0.5;exitY=0;exitDx=0;exitDy=0;entryX=0.5;entryY=1;entryDx=0;entryDy=0;" parent="1" source="PLGpDg-OFUtUU8TYexSK-23" target="PLGpDg-OFUtUU8TYexSK-50" edge="1">
          <mxGeometry width="50" height="50" relative="1" as="geometry">
            <mxPoint x="-1480" y="1033" as="sourcePoint" />
            <mxPoint x="-1188.1399999999999" y="890.94" as="targetPoint" />
          </mxGeometry>
        </mxCell>
        <mxCell id="PLGpDg-OFUtUU8TYexSK-85" value="" style="endArrow=classic;html=1;rounded=0;exitX=0.5;exitY=0;exitDx=0;exitDy=0;entryX=0.5;entryY=1;entryDx=0;entryDy=0;" parent="1" source="PLGpDg-OFUtUU8TYexSK-29" target="PLGpDg-OFUtUU8TYexSK-81" edge="1">
          <mxGeometry width="50" height="50" relative="1" as="geometry">
            <mxPoint x="-1475" y="1043" as="sourcePoint" />
            <mxPoint x="-1510.94" y="891" as="targetPoint" />
          </mxGeometry>
        </mxCell>
        <mxCell id="PLGpDg-OFUtUU8TYexSK-92" value="" style="endArrow=classic;html=1;rounded=0;exitX=0.5;exitY=0;exitDx=0;exitDy=0;entryX=0.5;entryY=1;entryDx=0;entryDy=0;" parent="1" source="PLGpDg-OFUtUU8TYexSK-29" target="PLGpDg-OFUtUU8TYexSK-88" edge="1">
          <mxGeometry width="50" height="50" relative="1" as="geometry">
            <mxPoint x="-1339" y="1043" as="sourcePoint" />
            <mxPoint x="-1037.8600000000001" y="890.94" as="targetPoint" />
          </mxGeometry>
        </mxCell>
        <mxCell id="PLGpDg-OFUtUU8TYexSK-174" value="" style="endArrow=classic;html=1;rounded=0;exitX=0.5;exitY=0;exitDx=0;exitDy=0;startArrow=classic;startFill=1;entryX=0.5;entryY=1;entryDx=0;entryDy=0;" parent="1" source="PLGpDg-OFUtUU8TYexSK-54" target="PLGpDg-OFUtUU8TYexSK-161" edge="1">
          <mxGeometry width="50" height="50" relative="1" as="geometry">
            <mxPoint x="-888" y="840" as="sourcePoint" />
            <mxPoint x="-888" y="198" as="targetPoint" />
          </mxGeometry>
        </mxCell>
        <mxCell id="PLGpDg-OFUtUU8TYexSK-175" value="" style="endArrow=classic;html=1;rounded=0;exitX=0.5;exitY=0;exitDx=0;exitDy=0;startArrow=classic;startFill=1;entryX=0.5;entryY=1;entryDx=0;entryDy=0;" parent="1" source="PLGpDg-OFUtUU8TYexSK-88" target="PLGpDg-OFUtUU8TYexSK-161" edge="1">
          <mxGeometry width="50" height="50" relative="1" as="geometry">
            <mxPoint x="-888" y="840" as="sourcePoint" />
            <mxPoint x="-891.3834586466164" y="198" as="targetPoint" />
          </mxGeometry>
        </mxCell>
        <mxCell id="PLGpDg-OFUtUU8TYexSK-176" value="" style="endArrow=classic;html=1;rounded=0;exitX=0.5;exitY=0;exitDx=0;exitDy=0;startArrow=classic;startFill=1;entryX=0.5;entryY=1;entryDx=0;entryDy=0;" parent="1" source="PLGpDg-OFUtUU8TYexSK-50" target="PLGpDg-OFUtUU8TYexSK-161" edge="1">
          <mxGeometry width="50" height="50" relative="1" as="geometry">
            <mxPoint x="-888" y="840" as="sourcePoint" />
            <mxPoint x="-894.7669172932328" y="198" as="targetPoint" />
          </mxGeometry>
        </mxCell>
        <mxCell id="PLGpDg-OFUtUU8TYexSK-177" value="" style="endArrow=classic;html=1;rounded=0;exitX=0.5;exitY=0;exitDx=0;exitDy=0;startArrow=classic;startFill=1;entryX=0.5;entryY=1;entryDx=0;entryDy=0;" parent="1" source="PLGpDg-OFUtUU8TYexSK-36" target="PLGpDg-OFUtUU8TYexSK-161" edge="1">
          <mxGeometry width="50" height="50" relative="1" as="geometry">
            <mxPoint x="-1230" y="710" as="sourcePoint" />
            <mxPoint x="-898.1503759398497" y="198" as="targetPoint" />
          </mxGeometry>
        </mxCell>
        <mxCell id="PLGpDg-OFUtUU8TYexSK-32" value="" style="rounded=1;whiteSpace=wrap;html=1;fillColor=#dae8fc;strokeColor=#6c8ebf;opacity=70;" parent="1" vertex="1">
          <mxGeometry x="-1900" y="963" width="1120" height="187" as="geometry" />
        </mxCell>
        <mxCell id="PLGpDg-OFUtUU8TYexSK-34" value="&lt;font style=&quot;font-size: 21px;&quot;&gt;Rapid Analysis Processing Framework Deployments&lt;/font&gt;" style="text;html=1;strokeColor=default;fillColor=default;align=center;verticalAlign=middle;whiteSpace=wrap;rounded=0;" parent="1" vertex="1">
          <mxGeometry x="-1645.4545454545455" y="973" width="610.9090909090909" height="30" as="geometry" />
        </mxCell>
        <mxCell id="PLGpDg-OFUtUU8TYexSK-18" value="Summit" style="swimlane;fontStyle=0;childLayout=stackLayout;horizontal=1;startSize=30;horizontalStack=0;resizeParent=1;resizeParentMax=0;resizeLast=0;collapsible=1;marginBottom=0;whiteSpace=wrap;html=1;" parent="1" vertex="1">
          <mxGeometry x="-1877" y="1033" width="138" height="100" as="geometry" />
        </mxCell>
        <mxCell id="PLGpDg-OFUtUU8TYexSK-19" value="Realtime data analysis of components on the summit" style="text;strokeColor=none;fillColor=none;align=left;verticalAlign=middle;spacingLeft=4;spacingRight=4;overflow=hidden;points=[[0,0.5],[1,0.5]];portConstraint=eastwest;rotatable=0;whiteSpace=wrap;html=1;" parent="PLGpDg-OFUtUU8TYexSK-18" vertex="1">
          <mxGeometry y="30" width="138" height="70" as="geometry" />
        </mxCell>
        <mxCell id="PLGpDg-OFUtUU8TYexSK-23" value="TTS" style="swimlane;fontStyle=0;childLayout=stackLayout;horizontal=1;startSize=30;horizontalStack=0;resizeParent=1;resizeParentMax=0;resizeLast=0;collapsible=1;marginBottom=0;whiteSpace=wrap;html=1;" parent="1" vertex="1">
          <mxGeometry x="-1727" y="1033" width="138" height="100" as="geometry" />
        </mxCell>
        <mxCell id="PLGpDg-OFUtUU8TYexSK-24" value="Realtime analysis of emulted components on the TTS" style="text;strokeColor=none;fillColor=none;align=left;verticalAlign=middle;spacingLeft=4;spacingRight=4;overflow=hidden;points=[[0,0.5],[1,0.5]];portConstraint=eastwest;rotatable=0;whiteSpace=wrap;html=1;" parent="PLGpDg-OFUtUU8TYexSK-23" vertex="1">
          <mxGeometry y="30" width="138" height="70" as="geometry" />
        </mxCell>
        <mxCell id="PLGpDg-OFUtUU8TYexSK-29" value="BTS" style="swimlane;fontStyle=0;childLayout=stackLayout;horizontal=1;startSize=30;horizontalStack=0;resizeParent=1;resizeParentMax=0;resizeLast=0;collapsible=1;marginBottom=0;whiteSpace=wrap;html=1;" parent="1" vertex="1">
          <mxGeometry x="-1576" y="1033" width="138" height="100" as="geometry" />
        </mxCell>
        <mxCell id="PLGpDg-OFUtUU8TYexSK-30" value="Realtime analysis of emulted components on the BTS" style="text;strokeColor=none;fillColor=none;align=left;verticalAlign=middle;spacingLeft=4;spacingRight=4;overflow=hidden;points=[[0,0.5],[1,0.5]];portConstraint=eastwest;rotatable=0;whiteSpace=wrap;html=1;" parent="PLGpDg-OFUtUU8TYexSK-29" vertex="1">
          <mxGeometry y="30" width="138" height="70" as="geometry" />
        </mxCell>
        <mxCell id="PLGpDg-OFUtUU8TYexSK-26" value="USDF" style="swimlane;fontStyle=0;childLayout=stackLayout;horizontal=1;startSize=30;horizontalStack=0;resizeParent=1;resizeParentMax=0;resizeLast=0;collapsible=1;marginBottom=0;whiteSpace=wrap;html=1;" parent="1" vertex="1">
          <mxGeometry x="-958" y="1033" width="140" height="60" as="geometry" />
        </mxCell>
        <mxCell id="PLGpDg-OFUtUU8TYexSK-27" value="Realtime analysis of USDF test stand data" style="text;strokeColor=none;fillColor=none;align=left;verticalAlign=middle;spacingLeft=4;spacingRight=4;overflow=hidden;points=[[0,0.5],[1,0.5]];portConstraint=eastwest;rotatable=0;whiteSpace=wrap;html=1;" parent="PLGpDg-OFUtUU8TYexSK-26" vertex="1">
          <mxGeometry y="30" width="140" height="30" as="geometry" />
        </mxCell>
        <mxCell id="PLGpDg-OFUtUU8TYexSK-87" value="" style="endArrow=classic;html=1;rounded=0;exitX=0.5;exitY=0;exitDx=0;exitDy=0;entryX=0.5;entryY=1;entryDx=0;entryDy=0;" parent="1" source="PLGpDg-OFUtUU8TYexSK-26" target="PLGpDg-OFUtUU8TYexSK-54" edge="1">
          <mxGeometry width="50" height="50" relative="1" as="geometry">
            <mxPoint x="-1470" y="1043" as="sourcePoint" />
            <mxPoint x="-888" y="891" as="targetPoint" />
          </mxGeometry>
        </mxCell>
        <mxCell id="PLGpDg-OFUtUU8TYexSK-75" value="" style="rounded=1;whiteSpace=wrap;html=1;fillColor=#f8cecc;strokeColor=#b85450;opacity=70;" parent="1" vertex="1">
          <mxGeometry x="-1898" y="750" width="1120" height="197" as="geometry" />
        </mxCell>
        <mxCell id="PLGpDg-OFUtUU8TYexSK-77" value="&lt;font style=&quot;font-size: 21px;&quot;&gt;S3 buckets&lt;br&gt;&lt;/font&gt;" style="text;html=1;strokeColor=default;fillColor=default;align=center;verticalAlign=middle;whiteSpace=wrap;rounded=0;" parent="1" vertex="1">
          <mxGeometry x="-1436" y="754" width="196" height="36" as="geometry" />
        </mxCell>
        <mxCell id="PLGpDg-OFUtUU8TYexSK-94" value="" style="group" parent="1" vertex="1" connectable="0">
          <mxGeometry x="-1878" y="848" width="440" height="120" as="geometry" />
        </mxCell>
        <mxCell id="PLGpDg-OFUtUU8TYexSK-40" value="TTS&amp;nbsp;S3" style="swimlane;fontStyle=0;childLayout=stackLayout;horizontal=1;startSize=30;horizontalStack=0;resizeParent=1;resizeParentMax=0;resizeLast=0;collapsible=1;marginBottom=0;whiteSpace=wrap;html=1;" parent="PLGpDg-OFUtUU8TYexSK-94" vertex="1">
          <mxGeometry x="150" width="140" height="60" as="geometry" />
        </mxCell>
        <mxCell id="PLGpDg-OFUtUU8TYexSK-44" value="Summit S3" style="swimlane;fontStyle=0;childLayout=stackLayout;horizontal=1;startSize=30;horizontalStack=0;resizeParent=1;resizeParentMax=0;resizeLast=0;collapsible=1;marginBottom=0;whiteSpace=wrap;html=1;" parent="PLGpDg-OFUtUU8TYexSK-94" vertex="1">
          <mxGeometry width="140" height="60" as="geometry" />
        </mxCell>
        <mxCell id="PLGpDg-OFUtUU8TYexSK-81" value="BTS&amp;nbsp;S3" style="swimlane;fontStyle=0;childLayout=stackLayout;horizontal=1;startSize=30;horizontalStack=0;resizeParent=1;resizeParentMax=0;resizeLast=0;collapsible=1;marginBottom=0;whiteSpace=wrap;html=1;" parent="PLGpDg-OFUtUU8TYexSK-94" vertex="1">
          <mxGeometry x="300" width="140" height="60" as="geometry" />
        </mxCell>
        <mxCell id="PLGpDg-OFUtUU8TYexSK-200" value="" style="shape=flexArrow;endArrow=classic;startArrow=classic;html=1;rounded=0;entryX=0.75;entryY=1;entryDx=0;entryDy=0;" parent="1" source="PLGpDg-OFUtUU8TYexSK-206" target="PLGpDg-OFUtUU8TYexSK-141" edge="1">
          <mxGeometry width="100" height="100" relative="1" as="geometry">
            <mxPoint x="-1763" y="443" as="sourcePoint" />
            <mxPoint x="-1773" y="330" as="targetPoint" />
          </mxGeometry>
        </mxCell>
        <mxCell id="PLGpDg-OFUtUU8TYexSK-201" value="" style="shape=flexArrow;endArrow=classic;startArrow=classic;html=1;rounded=0;entryX=0.75;entryY=1;entryDx=0;entryDy=0;" parent="1" source="PLGpDg-OFUtUU8TYexSK-211" target="PLGpDg-OFUtUU8TYexSK-137" edge="1">
          <mxGeometry width="100" height="100" relative="1" as="geometry">
            <mxPoint x="-2300" y="603" as="sourcePoint" />
            <mxPoint x="-1622.44" y="300" as="targetPoint" />
          </mxGeometry>
        </mxCell>
        <mxCell id="PLGpDg-OFUtUU8TYexSK-202" value="" style="shape=flexArrow;endArrow=classic;startArrow=classic;html=1;rounded=0;entryX=0.75;entryY=1;entryDx=0;entryDy=0;" parent="1" source="PLGpDg-OFUtUU8TYexSK-213" target="PLGpDg-OFUtUU8TYexSK-145" edge="1">
          <mxGeometry width="100" height="100" relative="1" as="geometry">
            <mxPoint x="-2250" y="672" as="sourcePoint" />
            <mxPoint x="-1472.44" y="270" as="targetPoint" />
          </mxGeometry>
        </mxCell>
        <mxCell id="PLGpDg-OFUtUU8TYexSK-203" value="" style="shape=flexArrow;endArrow=classic;startArrow=classic;html=1;rounded=0;entryX=0;entryY=1;entryDx=0;entryDy=0;" parent="1" source="PLGpDg-OFUtUU8TYexSK-215" target="PLGpDg-OFUtUU8TYexSK-161" edge="1">
          <mxGeometry width="100" height="100" relative="1" as="geometry">
            <mxPoint x="-2240" y="682" as="sourcePoint" />
            <mxPoint x="-957.7199999999998" y="269.97" as="targetPoint" />
          </mxGeometry>
        </mxCell>
        <mxCell id="PLGpDg-OFUtUU8TYexSK-209" value="" style="shape=flexArrow;endArrow=classic;startArrow=classic;html=1;rounded=0;exitX=0.5;exitY=0;exitDx=0;exitDy=0;entryX=0.747;entryY=1;entryDx=0;entryDy=0;entryPerimeter=0;" parent="1" source="PLGpDg-OFUtUU8TYexSK-179" target="PLGpDg-OFUtUU8TYexSK-206" edge="1">
          <mxGeometry width="100" height="100" relative="1" as="geometry">
            <mxPoint x="-1672" y="662" as="sourcePoint" />
            <mxPoint x="-1773" y="330" as="targetPoint" />
          </mxGeometry>
        </mxCell>
        <mxCell id="PLGpDg-OFUtUU8TYexSK-206" value="RubinTV worker pods" style="rounded=1;whiteSpace=wrap;html=1;" parent="1" vertex="1">
          <mxGeometry x="-1770" y="442" width="80" height="80" as="geometry" />
        </mxCell>
        <mxCell id="PLGpDg-OFUtUU8TYexSK-212" value="" style="shape=flexArrow;endArrow=classic;startArrow=classic;html=1;rounded=0;exitX=0.5;exitY=0;exitDx=0;exitDy=0;entryX=0.754;entryY=1;entryDx=0;entryDy=0;entryPerimeter=0;" parent="1" source="PLGpDg-OFUtUU8TYexSK-183" target="PLGpDg-OFUtUU8TYexSK-211" edge="1">
          <mxGeometry width="100" height="100" relative="1" as="geometry">
            <mxPoint x="-1522" y="662" as="sourcePoint" />
            <mxPoint x="-1622" y="330" as="targetPoint" />
          </mxGeometry>
        </mxCell>
        <mxCell id="PLGpDg-OFUtUU8TYexSK-211" value="RubinTV worker pods" style="rounded=1;whiteSpace=wrap;html=1;" parent="1" vertex="1">
          <mxGeometry x="-1620" y="442" width="80" height="80" as="geometry" />
        </mxCell>
        <mxCell id="PLGpDg-OFUtUU8TYexSK-214" value="" style="shape=flexArrow;endArrow=classic;startArrow=classic;html=1;rounded=0;exitX=0.5;exitY=0;exitDx=0;exitDy=0;entryX=0.754;entryY=1;entryDx=0;entryDy=0;entryPerimeter=0;" parent="1" source="PLGpDg-OFUtUU8TYexSK-187" target="PLGpDg-OFUtUU8TYexSK-213" edge="1">
          <mxGeometry width="100" height="100" relative="1" as="geometry">
            <mxPoint x="-1372" y="662" as="sourcePoint" />
            <mxPoint x="-1472" y="330" as="targetPoint" />
          </mxGeometry>
        </mxCell>
        <mxCell id="PLGpDg-OFUtUU8TYexSK-213" value="RubinTV worker pods" style="rounded=1;whiteSpace=wrap;html=1;" parent="1" vertex="1">
          <mxGeometry x="-1470" y="442" width="80" height="80" as="geometry" />
        </mxCell>
        <mxCell id="PLGpDg-OFUtUU8TYexSK-216" value="" style="shape=flexArrow;endArrow=classic;startArrow=classic;html=1;rounded=0;exitX=0.5;exitY=0;exitDx=0;exitDy=0;entryX=0.25;entryY=1;entryDx=0;entryDy=0;" parent="1" source="PLGpDg-OFUtUU8TYexSK-191" target="PLGpDg-OFUtUU8TYexSK-215" edge="1">
          <mxGeometry width="100" height="100" relative="1" as="geometry">
            <mxPoint x="-1224" y="662" as="sourcePoint" />
            <mxPoint x="-958" y="330" as="targetPoint" />
          </mxGeometry>
        </mxCell>
        <mxCell id="PLGpDg-OFUtUU8TYexSK-215" value="RubinTV worker pods" style="rounded=1;whiteSpace=wrap;html=1;" parent="1" vertex="1">
          <mxGeometry x="-1120" y="442" width="80" height="80" as="geometry" />
        </mxCell>
        <mxCell id="PLGpDg-OFUtUU8TYexSK-217" value="" style="group;fillColor=#d5e8d4;strokeColor=#82b366;rounded=1;opacity=70;container=0;" parent="1" vertex="1" connectable="0">
          <mxGeometry x="-1780" y="572" width="680" height="163" as="geometry" />
        </mxCell>
        <mxCell id="PLGpDg-OFUtUU8TYexSK-58" value="" style="rounded=1;whiteSpace=wrap;html=1;fillColor=none;" parent="1" vertex="1">
          <mxGeometry x="-1418" y="800" width="620" height="130" as="geometry" />
        </mxCell>
        <mxCell id="PLGpDg-OFUtUU8TYexSK-93" value="" style="group" parent="1" vertex="1" connectable="0">
          <mxGeometry x="-1408" y="848" width="590" height="120" as="geometry" />
        </mxCell>
        <mxCell id="PLGpDg-OFUtUU8TYexSK-36" value="Summit mirror" style="swimlane;fontStyle=0;childLayout=stackLayout;horizontal=1;startSize=30;horizontalStack=0;resizeParent=1;resizeParentMax=0;resizeLast=0;collapsible=1;marginBottom=0;whiteSpace=wrap;html=1;" parent="PLGpDg-OFUtUU8TYexSK-93" vertex="1">
          <mxGeometry width="140" height="60" as="geometry" />
        </mxCell>
        <mxCell id="PLGpDg-OFUtUU8TYexSK-50" value="TTS mirror" style="swimlane;fontStyle=0;childLayout=stackLayout;horizontal=1;startSize=30;horizontalStack=0;resizeParent=1;resizeParentMax=0;resizeLast=0;collapsible=1;marginBottom=0;whiteSpace=wrap;html=1;" parent="PLGpDg-OFUtUU8TYexSK-93" vertex="1">
          <mxGeometry x="150" width="140" height="60" as="geometry" />
        </mxCell>
        <mxCell id="PLGpDg-OFUtUU8TYexSK-54" value="USDF&lt;br&gt;" style="swimlane;fontStyle=0;childLayout=stackLayout;horizontal=1;startSize=30;horizontalStack=0;resizeParent=1;resizeParentMax=0;resizeLast=0;collapsible=1;marginBottom=0;whiteSpace=wrap;html=1;" parent="PLGpDg-OFUtUU8TYexSK-93" vertex="1">
          <mxGeometry x="450" width="140" height="60" as="geometry" />
        </mxCell>
        <mxCell id="PLGpDg-OFUtUU8TYexSK-88" value="BTS mirror" style="swimlane;fontStyle=0;childLayout=stackLayout;horizontal=1;startSize=30;horizontalStack=0;resizeParent=1;resizeParentMax=0;resizeLast=0;collapsible=1;marginBottom=0;whiteSpace=wrap;html=1;" parent="PLGpDg-OFUtUU8TYexSK-93" vertex="1">
          <mxGeometry x="300" width="140" height="60" as="geometry" />
        </mxCell>
        <mxCell id="PLGpDg-OFUtUU8TYexSK-74" value="&lt;font style=&quot;font-size: 21px;&quot;&gt;USDF S3 buckets&lt;br&gt;&lt;/font&gt;" style="text;html=1;strokeColor=default;fillColor=#FFFFFF;align=center;verticalAlign=middle;whiteSpace=wrap;rounded=0;" parent="1" vertex="1">
          <mxGeometry x="-1228" y="810" width="240" height="30" as="geometry" />
        </mxCell>
        <mxCell id="PLGpDg-OFUtUU8TYexSK-204" value="" style="rounded=1;whiteSpace=wrap;html=1;fillColor=none;" parent="1" vertex="1">
          <mxGeometry x="-1780" y="572" width="680" height="163" as="geometry" />
        </mxCell>
        <mxCell id="PLGpDg-OFUtUU8TYexSK-196" value="" style="group" parent="1" vertex="1" connectable="0">
          <mxGeometry x="-1742" y="590" width="588" height="120" as="geometry" />
        </mxCell>
        <mxCell id="PLGpDg-OFUtUU8TYexSK-179" value="Summit EFD" style="swimlane;fontStyle=0;childLayout=stackLayout;horizontal=1;startSize=30;horizontalStack=0;resizeParent=1;resizeParentMax=0;resizeLast=0;collapsible=1;marginBottom=0;whiteSpace=wrap;html=1;" parent="PLGpDg-OFUtUU8TYexSK-196" vertex="1">
          <mxGeometry y="72" width="140" height="60" as="geometry" />
        </mxCell>
        <mxCell id="PLGpDg-OFUtUU8TYexSK-183" value="TTS EFD" style="swimlane;fontStyle=0;childLayout=stackLayout;horizontal=1;startSize=30;horizontalStack=0;resizeParent=1;resizeParentMax=0;resizeLast=0;collapsible=1;marginBottom=0;whiteSpace=wrap;html=1;" parent="PLGpDg-OFUtUU8TYexSK-196" vertex="1">
          <mxGeometry x="150" y="72" width="140" height="60" as="geometry" />
        </mxCell>
        <mxCell id="PLGpDg-OFUtUU8TYexSK-187" value="BTS EFD" style="swimlane;fontStyle=0;childLayout=stackLayout;horizontal=1;startSize=30;horizontalStack=0;resizeParent=1;resizeParentMax=0;resizeLast=0;collapsible=1;marginBottom=0;whiteSpace=wrap;html=1;" parent="PLGpDg-OFUtUU8TYexSK-196" vertex="1">
          <mxGeometry x="300" y="72" width="140" height="60" as="geometry" />
        </mxCell>
        <mxCell id="PLGpDg-OFUtUU8TYexSK-191" value="USDF EFD" style="swimlane;fontStyle=0;childLayout=stackLayout;horizontal=1;startSize=30;horizontalStack=0;resizeParent=1;resizeParentMax=0;resizeLast=0;collapsible=1;marginBottom=0;whiteSpace=wrap;html=1;" parent="PLGpDg-OFUtUU8TYexSK-196" vertex="1">
          <mxGeometry x="448" y="72" width="140" height="60" as="geometry" />
        </mxCell>
        <mxCell id="PLGpDg-OFUtUU8TYexSK-205" value="&lt;font style=&quot;font-size: 21px;&quot;&gt;EFD/&quot;Summit&quot; DB instances&lt;br&gt;&lt;/font&gt;" style="text;html=1;strokeColor=default;fillColor=default;align=center;verticalAlign=middle;whiteSpace=wrap;rounded=0;" parent="1" vertex="1">
          <mxGeometry x="-1598" y="585" width="318" height="32" as="geometry" />
        </mxCell>
        <mxCell id="PLGpDg-OFUtUU8TYexSK-135" value="&lt;font style=&quot;font-size: 21px;&quot;&gt;RubinTV v2 Web Apps&lt;br&gt;&lt;/font&gt;" style="text;html=1;strokeColor=default;fillColor=default;align=center;verticalAlign=middle;whiteSpace=wrap;rounded=0;" parent="1" vertex="1">
          <mxGeometry x="-1476" y="261" width="276" height="34" as="geometry" />
        </mxCell>
        <mxCell id="PLGpDg-OFUtUU8TYexSK-136" value="" style="group" parent="1" vertex="1" connectable="0">
          <mxGeometry x="-1878" y="329" width="440" height="120" as="geometry" />
        </mxCell>
        <mxCell id="PLGpDg-OFUtUU8TYexSK-137" value="TTS" style="swimlane;fontStyle=0;childLayout=stackLayout;horizontal=1;startSize=30;horizontalStack=0;resizeParent=1;resizeParentMax=0;resizeLast=0;collapsible=1;marginBottom=0;whiteSpace=wrap;html=1;" parent="PLGpDg-OFUtUU8TYexSK-136" vertex="1">
          <mxGeometry x="150" width="140" height="60" as="geometry" />
        </mxCell>
        <mxCell id="PLGpDg-OFUtUU8TYexSK-141" value="Summit" style="swimlane;fontStyle=0;childLayout=stackLayout;horizontal=1;startSize=30;horizontalStack=0;resizeParent=1;resizeParentMax=0;resizeLast=0;collapsible=1;marginBottom=0;whiteSpace=wrap;html=1;" parent="PLGpDg-OFUtUU8TYexSK-136" vertex="1">
          <mxGeometry width="140" height="60" as="geometry" />
        </mxCell>
        <mxCell id="PLGpDg-OFUtUU8TYexSK-145" value="BTS" style="swimlane;fontStyle=0;childLayout=stackLayout;horizontal=1;startSize=30;horizontalStack=0;resizeParent=1;resizeParentMax=0;resizeLast=0;collapsible=1;marginBottom=0;whiteSpace=wrap;html=1;" parent="PLGpDg-OFUtUU8TYexSK-136" vertex="1">
          <mxGeometry x="300" width="140" height="60" as="geometry" />
        </mxCell>
        <mxCell id="PLGpDg-OFUtUU8TYexSK-161" value="USDF&lt;br&gt;" style="swimlane;fontStyle=0;childLayout=stackLayout;horizontal=1;startSize=30;horizontalStack=0;resizeParent=1;resizeParentMax=0;resizeLast=0;collapsible=1;marginBottom=0;whiteSpace=wrap;html=1;" parent="1" vertex="1">
          <mxGeometry x="-958" y="329" width="140" height="60" as="geometry" />
        </mxCell>
      </root>
    </mxGraphModel>
  </diagram>
</mxfile>
